<svg width="288" height="69" viewBox="0 0 288 69" fill="none" xmlns="http://www.w3.org/2000/svg">
<path d="M84.808 69H78.184V17.448H84.808L102.736 48.84H103.024L120.952 17.448H127.576V69H120.952V38.4L121.24 29.76H120.952L104.824 58.056H100.936L84.808 29.76H84.52L84.808 38.4V69ZM155.969 18.5508H165.074C165.777 18.5508 166.527 19.7695 167.324 22.207C167.605 22.6289 174.473 38.0391 187.926 68.4375C187.855 68.8125 187.48 69 186.801 69H177.977C177.203 69 176.359 67.5469 175.445 64.6406C173.758 60.9844 168.801 49.6406 160.574 30.6094H160.434C152.395 49.3359 146.793 62.0859 143.629 68.8594L142.926 69H134.242C133.727 69 133.352 68.8594 133.117 68.5781C145.07 41.4141 152.453 24.7852 155.266 18.6914L155.969 18.5508ZM203.988 69H197.364V17.448H205.428L230.484 57.552H230.772L230.484 47.616V17.448H237.108V69H230.196L203.988 26.952H203.7L203.988 36.888V69ZM251.241 69H243.465L260.745 42.36L244.473 17.448H252.393L264.921 37.176H265.209L277.737 17.448H285.657L269.385 42.36L286.665 69H278.889L265.209 47.904H264.921L251.241 69Z" fill="#26E4C2"/>
<path fill-rule="evenodd" clip-rule="evenodd" d="M27.5 20.875C26.2344 20.875 25.2083 21.901 25.2083 23.1667C25.2083 24.4324 26.2344 25.4583 27.4999 25.4583C28.7656 25.4583 29.7917 24.4322 29.7917 23.1667C29.7917 21.901 28.7656 20.875 27.5 20.875ZM20.625 23.1667C20.625 19.3697 23.7031 16.2917 27.5 16.2917C31.2969 16.2917 34.375 19.3697 34.375 23.1667C34.375 26.1601 32.4618 28.7067 29.7916 29.6505V40.1769L39.0082 45.4981C40.2184 44.4358 41.8048 43.7917 43.5417 43.7917C47.3386 43.7917 50.4167 46.8698 50.4167 50.6667C50.4167 54.4636 47.3386 57.5417 43.5417 57.5417C39.7448 57.5417 36.6667 54.4636 36.6667 50.6667C36.6667 50.2676 36.7007 49.8764 36.766 49.4959L27.4999 44.1462L18.234 49.4958C18.2993 49.8763 18.3333 50.2675 18.3333 50.6667C18.3333 54.4636 15.2553 57.5417 11.4583 57.5417C7.66137 57.5417 4.58334 54.4636 4.58334 50.6667C4.58334 46.8698 7.66137 43.7917 11.4583 43.7917C13.1952 43.7917 14.7816 44.4357 15.9917 45.498L25.2082 40.1769V29.6505C22.538 28.7066 20.625 26.16 20.625 23.1667ZM11.4583 30.0417C10.1927 30.0417 9.16668 31.0677 9.16668 32.3333C9.16668 33.599 10.1927 34.625 11.4583 34.625C12.724 34.625 13.75 33.5989 13.75 32.3333C13.75 31.0677 12.724 30.0417 11.4583 30.0417ZM4.58334 32.3333C4.58334 28.5364 7.66137 25.4583 11.4583 25.4583C15.2553 25.4583 18.3333 28.5364 18.3333 32.3333C18.3333 36.1302 15.2553 39.2083 11.4583 39.2083C7.66137 39.2083 4.58334 36.1302 4.58334 32.3333ZM43.5417 30.0417C42.2761 30.0417 41.25 31.0677 41.25 32.3333C41.25 33.5989 42.2761 34.625 43.5417 34.625C44.8073 34.625 45.8333 33.5989 45.8333 32.3333C45.8333 31.0677 44.8073 30.0417 43.5417 30.0417ZM36.6667 32.3333C36.6667 28.5364 39.7448 25.4583 43.5417 25.4583C47.3386 25.4583 50.4167 28.5364 50.4167 32.3333C50.4167 36.1302 47.3386 39.2083 43.5417 39.2083C39.7448 39.2083 36.6667 36.1302 36.6667 32.3333ZM11.4583 48.375C10.1927 48.375 9.16668 49.401 9.16668 50.6667C9.16668 51.9323 10.1927 52.9583 11.4583 52.9583C12.724 52.9583 13.75 51.9323 13.75 50.6667C13.75 49.4011 12.724 48.375 11.4583 48.375ZM43.5417 48.375C42.2761 48.375 41.25 49.4011 41.25 50.6667C41.25 51.9323 42.2761 52.9583 43.5417 52.9583C44.8073 52.9583 45.8333 51.9323 45.8333 50.6667C45.8333 49.4011 44.8073 48.375 43.5417 48.375ZM27.5 57.5417C26.2344 57.5417 25.2083 58.5677 25.2083 59.8333C25.2083 61.0989 26.2344 62.125 27.5 62.125C28.7656 62.125 29.7917 61.0989 29.7917 59.8333C29.7917 58.5677 28.7656 57.5417 27.5 57.5417ZM20.625 59.8333C20.625 56.0364 23.7031 52.9583 27.5 52.9583C31.2969 52.9583 34.375 56.0364 34.375 59.8333C34.375 63.6302 31.2969 66.7083 27.5 66.7083C23.7031 66.7083 20.625 63.6302 20.625 59.8333Z" fill="#999898"/>
</svg>
